<?xml version="1.0" encoding="utf-8"?>
<!-- Generator: Adobe Illustrator 26.1.0, SVG Export Plug-In . SVG Version: 6.00 Build 0)  -->
<svg version="1.1" id="Layer_1" xmlns="http://www.w3.org/2000/svg" xmlns:xlink="http://www.w3.org/1999/xlink" x="0px" y="0px"
	 viewBox="0 0 50 50" style="enable-background:new 0 0 50 50;" xml:space="preserve">
<style type="text/css">
	.st0{display:none;}
	.st1{display:inline;fill-rule:evenodd;clip-rule:evenodd;fill:#69717D;}
	.st2{fill-rule:evenodd;clip-rule:evenodd;fill:#FFFFFF;}
</style>
<g id="User_Icon" class="st0">
	<path class="st1" d="M42,50c0,0,4.1,0,4.1-4.2S42,29.2,25.5,29.2S4.9,41.7,4.9,45.8C4.9,50,9,50,9,50H42z M9.1,45.8h32.8
		c0,0,0,0,0.1,0l0,0c0-1.1-0.7-4.3-3.1-7.2c-2.3-2.7-6.3-5.3-13.4-5.3c-7.1,0-11.1,2.6-13.4,5.3C9.7,41.5,9,44.7,9,45.8
		C9.1,45.8,9.1,45.8,9.1,45.8z M25.5,20.8c2.2,0,4.3-0.9,5.8-2.4c1.5-1.6,2.4-3.7,2.4-5.9s-0.9-4.3-2.4-5.9
		c-1.5-1.6-3.6-2.4-5.8-2.4s-4.3,0.9-5.8,2.4s-2.4,3.7-2.4,5.9s0.9,4.3,2.4,5.9C21.2,20,23.3,20.8,25.5,20.8z M37.8,12.5
		c0,1.6-0.3,3.3-0.9,4.8c-0.6,1.5-1.5,2.9-2.7,4.1c-1.2,1.2-2.5,2.1-4,2.7c-1.5,0.6-3.1,1-4.7,1s-3.2-0.3-4.7-1
		c-1.5-0.6-2.9-1.5-4-2.7s-2.1-2.5-2.7-4.1c-0.6-1.5-0.9-3.1-0.9-4.8c0-3.3,1.3-6.5,3.6-8.8C19.1,1.3,22.2,0,25.5,0s6.4,1.3,8.7,3.7
		C36.5,6,37.8,9.2,37.8,12.5z"/>
</g>
<g id="shopping_cart">
	<path class="st2" d="M8.9,10.6h38.9c1.3,0,2.3,1.2,2,2.5l-4.2,16.6c-0.2,0.9-1,1.5-1.9,1.5l-32.7,1.9c0.6,1.4,1.9,2.3,3.5,2.3h22.8
		c3.4,0,6.2,2.8,6.2,6.2s-2.8,6.2-6.2,6.2c-4.3,0-7.3-4.3-5.8-8.3H20.4c1.5,4-1.5,8.3-5.8,8.3c-5.2,0-8.1-6-4.9-10
		C8,36.5,7,34.4,6.8,32.6C4.2,3.7,4.3,5,4.6,7.7l0,0l0,0c0.2,1.8,0.4,4.3-0.1-1.3H2.2c-1.1,0-2.1-0.9-2.1-2s0.9-2,2-2h4.2
		c1.1,0,1.9,0.8,2,1.9L8.9,10.6z M12.5,41.7c0,1.2,0.9,2.1,2.1,2.1s2.1-1,2.1-2.1s-0.9-2.1-2.1-2.1S12.5,40.5,12.5,41.7z M37.5,43.8
		c-1.2,0-2.1-1-2.1-2.1s1-2.1,2.1-2.1s2.1,1,2.1,2.1S38.6,43.8,37.5,43.8z M10.6,29.1l31.5-1.9l3.2-12.6h-36L10.6,29.1z"/>
</g>
</svg>
