<?xml version="1.0" encoding="utf-8"?>
<!-- Generator: Adobe Illustrator 26.1.0, SVG Export Plug-In . SVG Version: 6.00 Build 0)  -->
<svg version="1.1" xmlns="http://www.w3.org/2000/svg" xmlns:xlink="http://www.w3.org/1999/xlink" x="0px" y="0px"
	 viewBox="0 0 50 50" style="enable-background:new 0 0 50 50;" xml:space="preserve">
<style type="text/css">
	.st0{fill-rule:evenodd;clip-rule:evenodd;fill:#69717D;}
	.st1{display:none;}
	.st2{display:inline;fill-rule:evenodd;clip-rule:evenodd;fill:#69717D;}
</style>
<g id="User_Icon">
	<path class="st0" d="M41.97,50c0,0,4.12,0,4.12-4.17c0-4.17-4.12-16.67-20.6-16.67S4.9,41.67,4.9,45.83C4.9,50,9.02,50,9.02,50
		H41.97z M9.11,45.83h32.77c0.02,0,0.04-0.01,0.06-0.01l0.03-0.01c-0.01-1.1-0.69-4.29-3.13-7.17c-2.27-2.7-6.27-5.32-13.35-5.32
		c-7.07,0-11.07,2.62-13.35,5.32c-2.44,2.88-3.13,6.07-3.13,7.17C9.05,45.82,9.08,45.83,9.11,45.83z M25.5,20.83
		c2.18,0,4.28-0.88,5.83-2.44c1.54-1.56,2.41-3.68,2.41-5.89s-0.87-4.33-2.41-5.89c-1.55-1.56-3.64-2.44-5.83-2.44
		s-4.28,0.88-5.83,2.44c-1.55,1.56-2.41,3.68-2.41,5.89s0.87,4.33,2.41,5.89C21.22,19.96,23.31,20.83,25.5,20.83z M37.85,12.5
		c0,1.64-0.32,3.27-0.94,4.78c-0.62,1.52-1.53,2.89-2.68,4.06c-1.15,1.16-2.51,2.08-4.01,2.71C28.73,24.68,27.12,25,25.5,25
		c-1.62,0-3.23-0.32-4.73-0.95c-1.5-0.63-2.86-1.55-4.01-2.71c-1.15-1.16-2.06-2.54-2.68-4.06c-0.62-1.52-0.94-3.14-0.94-4.78
		c0-3.32,1.3-6.49,3.62-8.84C19.07,1.32,22.22,0,25.5,0s6.42,1.32,8.74,3.66C36.55,6.01,37.85,9.18,37.85,12.5z"/>
</g>
<g id="shopping_cart" class="st1">
	<path class="st2" d="M8.92,10.57h38.94c1.33,0,2.31,1.25,1.98,2.54l-4.16,16.62c-0.22,0.87-0.97,1.49-1.86,1.55L11.13,33.2
		c0.58,1.37,1.94,2.3,3.49,2.3h22.84c3.42,0,6.2,2.78,6.2,6.2c0,3.42-2.78,6.2-6.2,6.2c-4.28,0-7.3-4.27-5.83-8.31H20.44
		c1.47,4.04-1.55,8.31-5.83,8.31c-5.16,0-8.05-5.97-4.88-10.02c-1.76-1.39-2.78-3.44-2.95-5.33C4.19,3.7,4.31,4.96,4.55,7.66l0,0
		l0,0c0.16,1.82,0.38,4.28-0.12-1.31H2.15C1.02,6.35,0.1,5.43,0.1,4.3c0-1.13,0.92-2.05,2.05-2.05H6.3c1.06,0,1.94,0.81,2.04,1.86
		L8.92,10.57z M12.5,41.7c0,1.16,0.95,2.11,2.11,2.11c1.16,0,2.11-0.95,2.11-2.11c0-1.16-0.95-2.11-2.11-2.11
		C13.45,39.59,12.5,40.54,12.5,41.7z M37.47,43.81c-1.16,0-2.11-0.95-2.11-2.11c0-1.16,0.95-2.11,2.11-2.11
		c1.16,0,2.11,0.95,2.11,2.11C39.58,42.86,38.63,43.81,37.47,43.81z M10.58,29.13l31.49-1.85l3.16-12.62H9.28L10.58,29.13z"/>
</g>
</svg>
